<?xml version="1.0" encoding="iso-8859-1"?>
<!-- Generator: Adobe Illustrator 19.0.0, SVG Export Plug-In . SVG Version: 6.00 Build 0)  -->
<svg version="1.1" id="Layer_1" xmlns="http://www.w3.org/2000/svg" xmlns:xlink="http://www.w3.org/1999/xlink" x="0px" y="0px"
	 viewBox="0 0 511.999 511.999" style="enable-background:new 0 0 511.999 511.999;" xml:space="preserve">
<g>
	<g>
		<path d="M481.306,339.767c5.105,0,9.242-4.138,9.242-9.242v-63.443c0-5.104-4.137-9.242-9.242-9.242h-14.78v-29.352
			c0-3.315-1.775-6.376-4.652-8.022c-24.767-14.17-40.151-40.66-40.151-69.133V29.267C421.723,13.129,408.594,0,392.456,0h-27.573
			c-16.138,0-29.267,13.129-29.267,29.267v42.09c0,44.502-35.609,80.815-79.379,80.944c-0.08,0-0.161,0-0.242,0
			c-21.262,0-41.244-8.276-56.288-23.32c-15.038-15.038-23.319-35.033-23.319-56.302V29.267C176.387,13.129,163.258,0,147.12,0
			h-27.574c-16.138,0-29.267,13.129-29.267,29.267v122.065c0,28.473-15.384,54.964-40.151,69.133
			c-2.877,1.646-4.652,4.707-4.652,8.022v29.352H30.692c-5.104,0-9.242,4.138-9.242,9.242v63.443c0,5.104,4.138,9.242,9.242,9.242
			h14.783v39.465H30.692c-5.104,0-9.242,4.138-9.242,9.242v63.443c0,5.104,4.138,9.242,9.242,9.242h14.783v41.597
			c0,5.104,4.138,9.242,9.242,9.242h402.566c5.105,0,9.242-4.138,9.242-9.242V461.16h14.78c5.105,0,9.242-4.138,9.242-9.242v-63.443
			c0-5.104-4.137-9.242-9.242-9.242h-14.78v-39.465H481.306z M39.935,321.283v-44.958h114.23v44.958H39.935z M39.935,442.675
			v-44.958h114.23v44.958H39.935z M448.041,493.514H63.96V461.16h99.447c5.104,0,9.242-4.138,9.242-9.242v-63.443
			c0-5.104-4.138-9.242-9.242-9.242H63.96v-39.465h99.447c5.104,0,9.242-4.138,9.242-9.242v-63.443c0-5.104-4.138-9.242-9.242-9.242
			H63.96v-24.167c27.768-18.01,44.803-49.076,44.803-82.34V29.267c0-5.946,4.837-10.783,10.783-10.783h27.573
			c5.946,0,10.783,4.837,10.783,10.783v43.412c0,26.206,10.205,50.843,28.734,69.372c18.538,18.538,43.157,28.735,69.358,28.734
			c0.097,0,0.2,0,0.298,0c53.932-0.159,97.808-44.764,97.808-99.429V29.267c0-5.946,4.837-10.783,10.783-10.783h27.573
			c5.946,0,10.783,4.837,10.783,10.783v122.065c0,33.265,17.035,64.331,44.803,82.341v24.167h-99.45
			c-5.105,0-9.242,4.138-9.242,9.242v63.443c0,5.104,4.137,9.242,9.242,9.242h99.45v39.465h-99.45c-5.105,0-9.242,4.138-9.242,9.242
			v63.443c0,5.104,4.137,9.242,9.242,9.242h99.45V493.514z M472.064,397.718v44.958h-114.23v-44.958H472.064z M357.834,321.283
			v-44.958h114.23v44.958H357.834z"/>
	</g>
</g>
<g>
</g>
<g>
</g>
<g>
</g>
<g>
</g>
<g>
</g>
<g>
</g>
<g>
</g>
<g>
</g>
<g>
</g>
<g>
</g>
<g>
</g>
<g>
</g>
<g>
</g>
<g>
</g>
<g>
</g>
</svg>
